<?xml version="1.0" encoding="UTF-8"?><svg id="Layer_1" xmlns="http://www.w3.org/2000/svg" xmlns:xlink="http://www.w3.org/1999/xlink" viewBox="0 0 400 400"><defs><style>.cls-1{fill:url(#linear-gradient);}</style><linearGradient id="linear-gradient" x1="-3.6387" y1="415.1662" x2="352.0834" y2="39.6818" gradientUnits="userSpaceOnUse"><stop offset="0" stop-color="#ff6d3c"/><stop offset="1" stop-color="#f9e74f"/></linearGradient></defs><path class="cls-1" d="M387.4108,129.9606c-1.6876-4.4207-7.4251-5.7375-10.9016-2.3962l-50.6945,50.6936c-3.9495,3.9494-6.2105,9.3152-6.2105,14.9513v40.9738c0,5.6361-2.1597,11.0365-6.2443,15.0865l-52.2123,52.246c-4.3211,4.3202-11.5097,1.5524-12.117-4.4215-1.0803-10.5636-3.24-20.8577-6.3457-30.6797-8.0324-26.1222-22.2754-49.4782-40.9737-68.2776-18.7997-18.6972-42.1891-32.9399-68.2788-40.973-9.8559-3.1386-20.1494-5.2653-30.6802-6.3456-6.0078-.6073-8.7411-7.7958-4.4216-12.116l52.214-52.2122c4.0838-4.0837,9.4835-6.2442,15.0867-6.2442h38.004c7.5265,0,14.8502-3.0034,20.1156-8.4039l18.6983-18.6642,29.8356-29.8351c3.3413-3.4764,2.0254-9.1125-2.3962-10.8001C245.4527,3.4631,218.722-1.0928,190.8096.2231,89.7922,4.6447,6.7975,86.1185.4189,186.9998c-7.4259,116.3048,84.8504,213.0002,199.5034,213.0002,110.5692,0,200.0777-89.5069,200.0777-199.9391,0-24.7057-4.4554-48.2966-12.5892-70.1003ZM216.4601,287.0365c-3.4757,6.4461-7.9311,12.5552-13.4329,18.0907-30.9159,30.8816-81.7117,29.9364-111.3117-3.2399-26.2248-29.3638-25.5162-75.3656,1.6876-103.8848,5.974-6.1091,12.5892-11.1379,19.7786-14.8508,3.9486-2.0245,8.8424,1.5524,8.0324,6.0077-4.4554,24.0647,2.6327,49.7147,21.0608,68.2776,18.6983,18.5629,44.3496,25.6509,68.3134,21.1955,4.6573-.8438,8.1338,4.1851,5.8719,8.4039Z"/></svg>